<?xml version="1.0" standalone="no"?>
<!DOCTYPE svg PUBLIC "-//W3C//DTD SVG 20010904//EN"
 "http://www.w3.org/TR/2001/REC-SVG-20010904/DTD/svg10.dtd">
<svg version="1.0" xmlns="http://www.w3.org/2000/svg"
 width="16.000000pt" height="16.000000pt" viewBox="0 0 16.000000 16.000000"
 preserveAspectRatio="xMidYMid meet">
<metadata>
Created by potrace 1.11, written by Peter Selinger 2001-2013
</metadata>
<g transform="translate(0.000000,16.000000) scale(0.003200,-0.003200)"
fill="#000000" stroke="none">
<path d="M35 3878 c3 -68 7 -170 10 -228 3 -58 7 -150 10 -205 3 -55 7 -152
10 -215 12 -278 21 -465 30 -665 3 -55 7 -154 10 -220 3 -66 7 -160 10 -210 2
-49 7 -155 10 -235 3 -80 7 -176 10 -215 4 -61 9 -156 20 -425 2 -36 3 -84 4
-107 l1 -43 154 0 c147 0 155 1 161 21 6 18 48 108 200 424 32 66 74 156 95
200 41 87 67 142 275 580 188 396 230 485 282 595 25 52 65 136 88 185 24 50
74 155 112 235 38 80 87 182 108 227 21 45 40 81 42 79 4 -4 9 -79 18 -266 3
-74 8 -169 10 -210 3 -41 7 -127 10 -190 3 -63 7 -151 10 -195 3 -44 7 -136
10 -205 3 -69 7 -156 10 -195 2 -38 7 -126 10 -195 3 -69 8 -156 10 -195 2
-38 7 -131 10 -205 3 -74 8 -164 10 -200 2 -36 7 -126 11 -200 3 -74 8 -155 9
-180 2 -25 3 -60 4 -77 l1 -33 155 0 c85 0 155 4 155 9 0 8 24 59 157 341 25
52 65 136 88 185 23 50 67 142 97 205 138 288 337 707 384 810 25 52 49 103
54 112 5 9 43 88 83 175 41 87 100 212 132 278 79 166 151 317 190 400 18 39
61 129 95 200 34 72 66 140 71 153 l9 23 -141 -3 -141 -3 -164 -355 c-91 -195
-174 -375 -186 -400 -11 -25 -35 -76 -53 -115 -18 -38 -56 -119 -84 -179 -28
-59 -51 -109 -51 -111 0 -1 -24 -54 -54 -116 -29 -63 -63 -134 -74 -159 -11
-25 -43 -92 -70 -150 -27 -58 -62 -132 -77 -165 -15 -33 -50 -107 -76 -164
-27 -57 -49 -105 -49 -106 0 -2 -24 -54 -54 -116 -29 -63 -77 -166 -106 -229
-29 -63 -57 -119 -61 -124 -5 -6 -9 7 -10 30 -1 21 -2 59 -4 84 -1 25 -5 113
-9 195 -4 83 -9 182 -11 220 -3 39 -7 124 -10 190 -3 66 -7 158 -10 205 -8
138 -15 277 -20 395 -3 61 -7 151 -10 200 -3 50 -7 140 -10 200 -3 61 -7 146
-9 190 -3 44 -8 145 -12 225 -4 80 -8 165 -10 190 -1 25 -3 73 -3 108 l-1 62
-155 0 -155 0 -51 -107 c-60 -124 -143 -298 -222 -463 -30 -63 -90 -187 -132
-275 -43 -88 -101 -209 -130 -270 -29 -60 -87 -182 -130 -270 -43 -88 -97
-200 -120 -250 -23 -49 -80 -166 -125 -260 -164 -339 -203 -420 -205 -425 -4
-17 -87 -181 -90 -178 -2 1 -6 75 -9 163 -4 88 -9 214 -11 280 -3 66 -7 194
-10 285 -7 219 -14 419 -20 560 -2 63 -7 196 -10 295 -4 99 -8 227 -10 285 -2
58 -7 193 -11 300 -7 198 -11 295 -13 318 -1 9 -35 12 -137 12 l-135 0 6 -122z"/>
<path d="M3730 3975 c-4 -5 -123 -242 -263 -525 -140 -283 -386 -780 -547
-1105 -161 -324 -362 -732 -447 -905 -85 -173 -157 -318 -160 -322 -2 -5 135
-8 304 -8 l309 0 26 57 c14 32 76 165 139 296 l113 237 518 -2 c515 -2 518 -2
519 -22 0 -12 2 -28 4 -36 1 -8 5 -33 9 -55 3 -22 22 -139 42 -261 l36 -220
318 -1 317 -1 -9 47 c-5 25 -11 60 -14 76 -2 17 -7 37 -9 45 -2 8 -6 26 -9 40
-6 33 -102 519 -176 890 -33 162 -61 306 -64 320 -2 14 -7 36 -10 50 -3 14 -8
36 -10 50 -3 14 -14 72 -26 130 -12 58 -23 116 -26 130 -4 23 -8 43 -18 95
-62 306 -77 385 -81 408 -3 15 -12 59 -20 97 -8 38 -17 84 -20 102 -4 18 -10
51 -15 73 -5 22 -12 56 -15 75 -4 19 -8 40 -9 45 -1 6 -10 54 -20 108 l-18 97
-37 0 c-20 0 -168 1 -329 3 -187 1 -297 -2 -302 -8z m238 -692 c1 -16 6 -53
12 -83 5 -30 12 -68 14 -85 18 -108 47 -284 51 -305 3 -14 8 -45 11 -70 3 -25
8 -54 10 -65 2 -10 6 -35 9 -55 3 -20 7 -45 9 -57 3 -12 8 -43 12 -70 3 -26 8
-57 10 -68 2 -11 9 -49 15 -85 10 -65 18 -112 22 -133 1 -9 -89 -12 -350 -12
-194 -1 -353 1 -353 3 0 6 64 150 118 262 27 58 74 159 105 225 55 119 97 209
187 400 26 55 59 128 75 163 15 34 31 62 34 62 4 0 8 -12 9 -27z"/>
</g>
</svg>
